<?xml version="1.0" standalone="no"?>
<!DOCTYPE svg PUBLIC "-//W3C//DTD SVG 1.1//EN" "http://www.w3.org/Graphics/SVG/1.1/DTD/svg11.dtd">
<svg width="100%" height="100%" version="1.1" xmlns="http://www.w3.org/2000/svg">
<g  style="" >
<g  style="fill:#7FB6F7;stroke:#000000;stroke-width:2.0;" >
<path d="M80.0 307.0 C83.833336 285.0 116.333336 292.16666 122.0 282.0 C127.666664 271.83334 103.833336 251.5 114.0 246.0 C124.166664 240.5 166.0 242.0 183.0 249.0 C200.0 256.0 197.16667 278.66666 216.0 288.0 C234.83333 297.33334 281.5 284.83334 296.0 305.0 C310.5 325.16666 335.83334 390.83334 303.0 409.0 C270.16666 427.16666 136.16667 431.0 99.0 414.0 C61.833332 397.0 76.166664 329.0 80.0 307.0 "/>
</g>
<g  style="fill:#A5CBF7;stroke:#000000;stroke-width:2.0;" >
<path d="M47.0 161.0 C48.166668 136.33333 40.833332 123.333336 47.0 108.0 C53.166668 92.666664 59.5 74.333336 84.0 69.0 C108.5 63.666668 169.66667 65.0 194.0 76.0 C218.33333 87.0 226.66667 116.666664 230.0 135.0 C233.33333 153.33333 222.66667 165.33333 214.0 186.0 C205.33333 206.66667 202.5 239.83333 178.0 259.0 C153.5 278.16666 90.0 301.5 67.0 301.0 C44.0 300.5 43.333332 279.33334 40.0 256.0 C36.666668 232.66667 45.833332 185.66667 47.0 161.0 "/>
</g>
<g  style="fill:#D4E6FC;stroke:#000000;stroke-width:2.0;" >
<path d="M53.0 167.0 C58.333332 167.16667 73.666664 180.83333 74.0 187.0 C74.333336 193.16667 60.333332 204.16667 55.0 204.0 C49.666668 203.83333 42.333332 192.16667 42.0 186.0 C41.666668 179.83333 47.666668 166.83333 53.0 167.0 "/>
</g>
<g  style="fill:#D4E6FC;stroke:#000000;stroke-width:2.0;" >
<path d="M130.0 167.0 C138.5 166.33333 157.16667 178.66667 157.0 185.0 C156.83333 191.33333 137.5 204.33333 129.0 205.0 C120.5 205.66667 105.833336 195.33333 106.0 189.0 C106.166664 182.66667 121.5 167.66667 130.0 167.0 "/>
</g>
<g  style="fill:#3A7AC6;stroke:#000000;stroke-width:2.0;" >
<path d="M50.0 144.0 C56.5 146.5 78.0 170.33333 79.0 173.0 C80.0 175.66667 62.5 162.5 56.0 160.0 C49.5 157.5 41.0 160.66667 40.0 158.0 C39.0 155.33333 43.5 141.5 50.0 144.0 "/>
</g>
<g  style="fill:#3A7AC6;stroke:#000000;stroke-width:2.0;" >
<path d="M147.0 141.0 C160.5 139.16667 183.0 158.66667 182.0 161.0 C181.0 163.33333 154.5 153.16667 141.0 155.0 C127.5 156.83333 100.0 174.33333 101.0 172.0 C102.0 169.66667 133.5 142.83333 147.0 141.0 "/>
</g>
<g  style="fill:#0F55A7;stroke:#000000;stroke-width:2.0;" >
<path d="M56.0 181.0 C58.166668 181.0 62.833332 186.5 63.0 189.0 C63.166668 191.5 59.166668 196.0 57.0 196.0 C54.833332 196.0 50.166668 191.5 50.0 189.0 C49.833332 186.5 53.833332 181.0 56.0 181.0 "/>
</g>
<g  style="fill:#0F55A7;stroke:#000000;stroke-width:2.0;" >
<path d="M128.0 182.0 C131.33333 181.83333 139.16667 185.5 139.0 188.0 C138.83333 190.5 130.33333 196.83333 127.0 197.0 C123.666664 197.16667 118.833336 191.5 119.0 189.0 C119.166664 186.5 124.666664 182.16667 128.0 182.0 "/>
</g>
<g  style="fill:#375B86;stroke:#000000;stroke-width:2.0;" >
<path d="M72.0 262.0 C81.666664 261.33334 105.333336 254.66667 105.0 255.0 C104.666664 255.33333 79.666664 263.33334 70.0 264.0 C60.333332 264.66666 46.666668 259.33334 47.0 259.0 C47.333332 258.66666 62.333332 262.66666 72.0 262.0 "/>
</g>
<g  style="fill:#AFD5FF;stroke:#000000;stroke-width:2.0;" >
<path d="M82.0 199.0 C93.5 199.16667 107.666664 235.0 99.0 242.0 C90.333336 249.0 32.833332 248.16667 30.0 241.0 C27.166666 233.83333 70.5 198.83333 82.0 199.0 "/>
</g>
</g>
</svg>
