<?xml version="1.0" standalone="no"?>
<!DOCTYPE svg PUBLIC "-//W3C//DTD SVG 1.1//EN" "http://www.w3.org/Graphics/SVG/1.1/DTD/svg11.dtd">
<svg width="100%" height="100%" version="1.1" xmlns="http://www.w3.org/2000/svg">
<g  style="" >
<g  style="fill:#7FB6F7;stroke:#000000;stroke-width:2.0;" >
<path d="M80.0 315.0 C83.833336 293.16666 116.333336 304.66666 122.0 281.0 C127.666664 257.33334 103.833336 189.83333 114.0 173.0 C124.166664 156.16667 166.0 163.16667 183.0 180.0 C200.0 196.83333 197.16667 251.33333 216.0 274.0 C234.83333 296.66666 281.5 290.66666 296.0 316.0 C310.5 341.33334 335.83334 410.0 303.0 426.0 C270.16666 442.0 136.16667 430.5 99.0 412.0 C61.833332 393.5 76.166664 336.83334 80.0 315.0 "/>
</g>
<g  style="fill:#A5CBF7;stroke:#000000;stroke-width:2.0;" >
<path d="M47.0 151.0 C48.166668 130.5 40.833332 107.166664 47.0 89.0 C53.166668 70.833336 59.5 49.5 84.0 42.0 C108.5 34.5 169.66667 30.833334 194.0 44.0 C218.33333 57.166668 226.66667 99.666664 230.0 121.0 C233.33333 142.33333 222.66667 154.66667 214.0 172.0 C205.33333 189.33333 202.5 212.33333 178.0 225.0 C153.5 237.66667 90.0 250.16667 67.0 248.0 C44.0 245.83333 43.333332 228.16667 40.0 212.0 C36.666668 195.83333 45.833332 171.5 47.0 151.0 "/>
</g>
<g  style="fill:#D4E6FC;stroke:#000000;stroke-width:2.0;" >
<path d="M53.0 91.0 C58.333332 90.0 73.666664 103.666664 74.0 109.0 C74.333336 114.333336 60.333332 122.0 55.0 123.0 C49.666668 124.0 42.333332 120.333336 42.0 115.0 C41.666668 109.666664 47.666668 92.0 53.0 91.0 "/>
</g>
<g  style="fill:#D4E6FC;stroke:#000000;stroke-width:2.0;" >
<path d="M130.0 90.0 C138.5 91.166664 157.16667 107.166664 157.0 113.0 C156.83333 118.833336 137.5 126.166664 129.0 125.0 C120.5 123.833336 105.833336 111.833336 106.0 106.0 C106.166664 100.166664 121.5 88.833336 130.0 90.0 "/>
</g>
<g  style="fill:#3A7AC6;stroke:#000000;stroke-width:2.0;" >
<path d="M50.0 70.0 C56.5 65.166664 78.0 72.833336 79.0 75.0 C80.0 77.166664 62.5 78.166664 56.0 83.0 C49.5 87.833336 41.0 106.166664 40.0 104.0 C39.0 101.833336 43.5 74.833336 50.0 70.0 "/>
</g>
<g  style="fill:#3A7AC6;stroke:#000000;stroke-width:2.0;" >
<path d="M147.0 74.0 C160.5 79.833336 183.0 107.166664 182.0 109.0 C181.0 110.833336 154.5 90.833336 141.0 85.0 C127.5 79.166664 100.0 75.833336 101.0 74.0 C102.0 72.166664 133.5 68.166664 147.0 74.0 "/>
</g>
<g  style="fill:#0F55A7;stroke:#000000;stroke-width:2.0;" >
<path d="M56.0 100.0 C58.166668 99.666664 62.833332 104.833336 63.0 107.0 C63.166668 109.166664 59.166668 112.666664 57.0 113.0 C54.833332 113.333336 50.166668 111.166664 50.0 109.0 C49.833332 106.833336 53.833332 100.333336 56.0 100.0 "/>
</g>
<g  style="fill:#0F55A7;stroke:#000000;stroke-width:2.0;" >
<path d="M128.0 100.0 C131.33333 100.166664 139.16667 104.5 139.0 107.0 C138.83333 109.5 130.33333 115.166664 127.0 115.0 C123.666664 114.833336 118.833336 108.5 119.0 106.0 C119.166664 103.5 124.666664 99.833336 128.0 100.0 "/>
</g>
<g  style="fill:#375B86;stroke:#000000;stroke-width:2.0;" >
<path d="M72.0 184.0 C81.666664 184.16667 105.333336 191.0 105.0 193.0 C104.666664 195.0 79.666664 196.16667 70.0 196.0 C60.333332 195.83333 46.666668 194.0 47.0 192.0 C47.333332 190.0 62.333332 183.83333 72.0 184.0 "/>
</g>
<g  style="fill:#AFD5FF;stroke:#000000;stroke-width:2.0;" >
<path d="M82.0 115.0 C93.5 115.333336 107.666664 153.66667 99.0 161.0 C90.333336 168.33333 32.833332 166.66667 30.0 159.0 C27.166666 151.33333 70.5 114.666664 82.0 115.0 "/>
</g>
</g>
</svg>
