<?xml version="1.0" standalone="no"?>
<!DOCTYPE svg PUBLIC "-//W3C//DTD SVG 1.1//EN" "http://www.w3.org/Graphics/SVG/1.1/DTD/svg11.dtd">
<svg width="100%" height="100%" version="1.1" xmlns="http://www.w3.org/2000/svg">
<g  style="fill:#7FB6F7;stroke:#000000;stroke-width:2.0;" >
<path d="M104.0 315.0 C117.333336 293.16666 151.0 304.66666 171.0 281.0 C191.0 257.33334 200.66667 189.83333 224.0 173.0 C247.33333 156.16667 302.33334 163.16667 311.0 180.0 C319.66666 196.83333 275.0 251.33333 276.0 274.0 C277.0 296.66666 312.33334 290.66666 317.0 316.0 C321.66666 341.33334 341.66666 410.0 304.0 426.0 C266.33334 442.0 124.333336 430.5 91.0 412.0 C57.666668 393.5 90.666664 336.83334 104.0 315.0 "/>
</g>
<g  style="fill:#A5CBF7;stroke:#000000;stroke-width:2.0;" >
<path d="M179.0 151.0 C171.16667 130.5 164.5 107.166664 170.0 89.0 C175.5 70.833336 186.33333 49.5 212.0 42.0 C237.66667 34.5 299.33334 30.833334 324.0 44.0 C348.66666 57.166668 355.33334 99.666664 360.0 121.0 C364.66666 142.33333 352.5 154.66667 352.0 172.0 C351.5 189.33333 360.66666 212.33333 357.0 225.0 C353.33334 237.66667 353.33334 250.16667 330.0 248.0 C306.66666 245.83333 242.16667 228.16667 217.0 212.0 C191.83333 195.83333 186.83333 171.5 179.0 151.0 "/>
</g>
<g  style="fill:#D4E6FC;stroke:#000000;stroke-width:2.0;" >
<path d="M269.0 91.0 C278.5 90.0 292.16666 103.666664 293.0 109.0 C293.83334 114.333336 283.5 122.0 274.0 123.0 C264.5 124.0 236.83333 120.333336 236.0 115.0 C235.16667 109.666664 259.5 92.0 269.0 91.0 "/>
</g>
<g  style="fill:#D4E6FC;stroke:#000000;stroke-width:2.0;" >
<path d="M343.0 90.0 C348.33334 91.166664 358.66666 107.166664 359.0 113.0 C359.33334 118.833336 350.33334 126.166664 345.0 125.0 C339.66666 123.833336 327.33334 111.833336 327.0 106.0 C326.66666 100.166664 337.66666 88.833336 343.0 90.0 "/>
</g>
<g  style="fill:#3A7AC6;stroke:#000000;stroke-width:2.0;" >
<path d="M265.0 70.0 C277.0 65.166664 299.83334 72.833336 300.0 75.0 C300.16666 77.166664 278.0 78.166664 266.0 83.0 C254.0 87.833336 228.16667 106.166664 228.0 104.0 C227.83333 101.833336 253.0 74.833336 265.0 70.0 "/>
</g>
<g  style="fill:#3A7AC6;stroke:#000000;stroke-width:2.0;" >
<path d="M355.0 74.0 C360.5 79.833336 362.66666 107.166664 362.0 109.0 C361.33334 110.833336 356.5 90.833336 351.0 85.0 C345.5 79.166664 328.33334 75.833336 329.0 74.0 C329.66666 72.166664 349.5 68.166664 355.0 74.0 "/>
</g>
<g  style="fill:#0F55A7;stroke:#000000;stroke-width:2.0;" >
<path d="M270.0 100.0 C273.66666 99.666664 280.83334 104.833336 281.0 107.0 C281.16666 109.166664 274.66666 112.666664 271.0 113.0 C267.33334 113.333336 259.16666 111.166664 259.0 109.0 C258.83334 106.833336 266.33334 100.333336 270.0 100.0 "/>
</g>
<g  style="fill:#0F55A7;stroke:#000000;stroke-width:2.0;" >
<path d="M343.0 100.0 C345.66666 100.166664 352.0 104.5 352.0 107.0 C352.0 109.5 345.66666 115.166664 343.0 115.0 C340.33334 114.833336 336.0 108.5 336.0 106.0 C336.0 103.5 340.33334 99.833336 343.0 100.0 "/>
</g>
<g  style="fill:#375B86;stroke:#000000;stroke-width:2.0;" >
<path d="M336.0 184.0 C344.66666 184.16667 349.83334 191.0 350.0 193.0 C350.16666 195.0 345.66666 196.16667 337.0 196.0 C328.33334 195.83333 298.16666 194.0 298.0 192.0 C297.83334 190.0 327.33334 183.83333 336.0 184.0 "/>
</g>
<g  style="fill:#AFD5FF;stroke:#000000;stroke-width:2.0;" >
<path d="M318.0 115.0 C331.16666 115.333336 381.16666 153.66667 378.0 161.0 C374.83334 168.33333 309.0 166.66667 299.0 159.0 C289.0 151.33333 304.83334 114.666664 318.0 115.0 "/>
</g>
</svg>
